PathFileType	4	(X/Y/Z)	D:\TRACE\v60_Jaco2_6-2-23\BothDRS_Motion1_10-v60.trc
DataRate	CameraRate	NumFrames	NumMarkers	Units	OrigDataRate	OrigDataStartFrame	OrigNumFrames
100.00	100.00	      17	9	mm	100.00	6563	      7500
Frame#	Time	front left toe			Front right toe			aft left toe			aft right toe			Arm			FL body			FR body			AL Body			AR Body			
		X1	Y1	Z1	X2	Y2	Z2	X3	Y3	Z3	X4	Y4	Z4	X5	Y5	Z5	X6	Y6	Z6	X7	Y7	Z7	X8	Y8	Z8	X9	Y9	Z9	

6563	65.620	-101.40468	23.46888	-139.33858	290.19232	101.75661	-219.74278	-37.74844	84.98885	435.16602	327.40018	1.73723	454.89188	258.35437	1090.65466	-602.15747	5.87832	576.37103	-303.91052	165.65103	570.05243	-317.18677	82.02220	558.45032	635.97333	240.29121	548.65247	627.61981	
6564	65.630	-101.40582	23.39821	-139.42822	292.28134	93.22591	-225.33533	-34.55873	76.27095	430.44568	327.52942	1.58556	454.62735	257.91074	1090.56592	-604.44513	6.33262	576.19159	-305.96600	165.86813	570.21808	-319.54507	83.42292	558.55298	633.87225	241.82597	548.96002	625.46381	
6565	65.640	-101.37492	23.43505	-139.38693	293.70288	84.30544	-230.70299	-32.00260	68.32616	425.53690	327.61993	1.35430	454.39587	257.51508	1090.48401	-606.84741	5.87688	576.35657	-307.80603	165.77998	570.12274	-321.71481	84.38451	558.50732	631.78137	243.35886	549.03735	622.93060	
6566	65.650	-101.34780	23.46050	-139.39864	295.14471	75.53748	-235.24640	-27.93898	58.52488	421.48154	327.56299	1.01877	454.12775	256.86148	1090.73096	-609.13617	5.86856	576.35742	-309.86740	165.61992	570.31860	-324.11929	86.68961	559.05225	631.31836	244.27873	548.96057	620.70416	
6567	65.660	-101.58872	23.59733	-139.38591	295.90869	66.68655	-239.58841	-25.14725	50.27658	418.25558	327.54837	0.74835	454.03152	255.94414	1090.84851	-611.67480	5.69257	576.38556	-312.23486	165.50290	570.40833	-326.46463	88.23623	558.77222	628.97668	246.06987	549.55054	619.59497	
6568	65.670	-101.73905	23.68756	-139.44814	296.84656	58.32170	-243.18170	-23.46539	41.84877	414.77991	327.55826	0.63766	453.93161	254.62518	1091.27502	-613.94696	5.48221	576.49438	-314.67877	165.08575	570.47144	-328.84589	89.42234	558.13165	625.98798	247.59685	549.46130	617.07959	
6569	65.680	-101.82864	23.72322	-139.50127	298.06985	50.26573	-246.37090	-19.65366	31.62682	413.05045	327.57553	0.33291	453.72223	253.49040	1091.97546	-616.34882	5.44992	576.21228	-317.11191	165.06572	570.66266	-331.61133	91.15915	557.88489	624.13086	249.06046	549.21057	614.35651	
6570	65.690	-101.74699	23.69786	-139.53845	299.47412	43.16763	-248.77838	-17.92576	23.76692	410.85123	327.72177	0.21947	453.64041	251.86693	1092.55054	-619.20807	5.47877	576.29895	-319.42117	165.34865	570.82397	-334.59750	92.67344	557.48364	621.38031	250.56735	549.20807	611.60059	
6571	65.700	-101.76899	23.83059	-139.49248	300.43991	36.82553	-251.61023	-16.16631	17.04239	408.62296	327.80170	0.09870	453.52713	250.43553	1093.18774	-621.77020	5.52809	576.13965	-322.21350	165.50468	571.11932	-337.33762	94.49043	556.85870	618.30438	254.51855	548.06152	606.65955	
6572	65.710	-101.80952	24.00527	-139.46173	301.08090	31.69246	-254.64365	-14.19600	10.47560	405.96332	327.81955	-0.06633	453.52701	248.99397	1093.78931	-624.47705	5.55064	576.22803	-324.72662	165.10483	571.44965	-340.54544	95.85521	556.36688	615.96790	250.71445	545.94196	601.60822	
6573	65.720	-101.69847	24.10299	-139.40164	301.96802	30.35839	-255.98630	-12.12934	3.74200	402.87598	327.84940	-0.57121	453.03012	247.41431	1094.44287	-627.37158	5.34801	576.53503	-327.29688	165.04152	572.14728	-343.41885	97.52664	555.57556	612.65015	252.12479	545.30658	597.76880	
6574	65.730	-101.40588	24.22944	-139.77612	302.52103	29.48703	-256.97348	-10.90813	-1.57732	399.36340	327.97769	-0.89961	452.68518	246.07785	1095.23694	-630.07037	5.17501	577.19623	-330.20667	164.59943	573.17267	-346.03726	98.82473	555.17438	610.30823	253.76616	545.17877	594.69867	
6575	65.740	-101.34728	24.93110	-140.08705	302.39267	29.17360	-256.20642	-12.00531	-1.79049	397.78598	328.09909	-0.72694	452.18228	244.24010	1096.28625	-632.58289	5.55774	577.96667	-332.55469	164.93059	574.45367	-349.16531	100.68483	555.39795	606.66962	255.16754	545.54248	591.26746	
6576	65.750	-101.29842	25.75669	-140.99432	301.54501	28.48430	-257.29428	-12.32162	-2.29914	399.32788	327.93622	0.39386	450.83502	242.41870	1097.97363	-634.62921	5.27550	578.63007	-334.94550	164.16257	574.68207	-351.37775	102.76308	557.68842	604.85461	257.31851	547.91565	589.07190	
6577	65.760	-99.12028	28.57390	-140.48665	302.35492	28.22093	-257.50763	-12.00570	-1.09778	399.62009	327.74323	3.06080	450.52228	240.40387	1100.21558	-638.33612	4.29021	579.59613	-336.90015	163.80835	575.79749	-353.68027	104.64495	559.25592	602.78857	261.76663	550.87250	589.10193	
6578	65.770	-95.39906	30.94924	-138.73721	302.73157	28.26181	-257.85370	-10.88283	-1.54976	399.43744	326.40411	5.43146	454.14624	238.60818	1101.21899	-641.87537	3.77391	580.62042	-338.71954	163.66750	577.34839	-356.25922	106.19502	561.53412	602.81860	263.76770	552.95160	588.01215	
6579	65.780	-89.92762	40.08958	-139.51062	302.34952	28.31010	-258.05063	-10.96460	-1.29601	399.64114	324.44513	16.40653	452.12390	236.85451	1101.46265	-644.29584	3.57596	581.72815	-340.39871	162.36238	578.31268	-358.29333	107.51439	560.65045	598.75671	258.31824	551.29913	582.58337	
